<?xml version="1.0" standalone="no"?>
<!DOCTYPE svg PUBLIC "-//W3C//DTD SVG 20010904//EN"
 "http://www.w3.org/TR/2001/REC-SVG-20010904/DTD/svg10.dtd">
<svg version="1.0" xmlns="http://www.w3.org/2000/svg"
 width="240.000000pt" height="240.000000pt" viewBox="0 0 240.000000 240.000000"
 preserveAspectRatio="xMidYMid meet">

<g transform="translate(0.000000,240.000000) scale(0.100000,-0.100000)"
fill="#000000" stroke="none">
<path d="M946 1764 c-150 -23 -337 -94 -406 -153 -21 -18 -15 -17 35 7 89 44
235 90 339 108 103 18 255 15 280 -5 8 -7 41 -46 72 -87 41 -53 54 -78 47 -85
-6 -6 -49 -17 -95 -25 -74 -12 -34 -13 357 -6 564 9 577 9 655 -16 63 -20 64
-20 40 -2 -14 11 -60 38 -104 61 -78 41 -79 41 -165 36 -47 -3 -129 -13 -181
-22 -130 -21 -319 -23 -393 -3 -111 31 -187 97 -203 176 l-6 32 -92 -1 c-50
-1 -131 -7 -180 -15z"/>
<path d="M1665 1002 c-73 -6 -152 -78 -175 -161 -41 -147 55 -250 196 -211 40
12 45 16 42 39 -2 17 -8 25 -18 22 -8 -2 -37 -6 -65 -8 -70 -7 -95 17 -95 91
0 129 102 207 211 162 12 -5 18 0 23 20 4 14 6 28 4 30 -9 8 -87 19 -123 16z"/>
<path d="M305 992 c-6 -4 -28 -81 -49 -172 -22 -91 -41 -171 -44 -177 -3 -9 7
-13 31 -13 31 0 35 3 41 32 19 95 26 108 55 108 25 0 31 -7 49 -47 11 -27 23
-58 27 -70 5 -18 14 -23 41 -23 40 0 40 4 -1 97 l-24 53 22 11 c68 35 93 98
62 156 -13 23 -29 36 -54 43 -42 12 -141 13 -156 2z m143 -64 c6 -6 12 -23 12
-39 0 -36 -34 -60 -96 -67 -42 -4 -46 -3 -41 14 4 10 9 33 13 49 13 59 22 68
62 60 21 -4 43 -11 50 -17z"/>
<path d="M1208 983 c-19 -5 -17 0 -53 -149 -31 -132 -30 -169 7 -197 21 -16
35 -18 72 -13 40 6 46 10 46 32 0 21 -4 24 -40 24 -27 0 -43 5 -46 15 -8 20
24 148 39 157 7 4 29 8 50 8 33 0 37 3 37 25 0 23 -4 25 -40 25 l-40 0 6 40
c7 41 4 44 -38 33z"/>
<path d="M629 887 c-65 -44 -97 -139 -69 -212 14 -36 72 -59 129 -51 53 7 62
14 55 42 -5 19 -10 21 -42 13 -42 -9 -85 6 -90 33 -3 16 3 18 89 33 78 12 118
96 69 145 -28 28 -97 27 -141 -3z m104 -39 c12 -38 -30 -68 -95 -68 -28 0 -28
0 -13 30 8 16 23 34 32 39 25 14 71 13 76 -1z"/>
<path d="M901 901 c-22 -6 -27 -20 -52 -126 -16 -66 -29 -126 -29 -132 0 -8
12 -13 28 -13 27 0 29 3 51 98 12 53 25 105 28 115 3 12 15 17 39 17 50 0 57
-26 33 -126 -24 -103 -24 -104 10 -104 29 0 30 2 51 96 24 103 22 132 -12 164
-22 21 -94 26 -147 11z"/>
<path d="M1872 889 c-71 -36 -110 -116 -92 -192 14 -65 65 -89 130 -63 22 9
40 11 40 6 0 -6 13 -10 29 -10 28 0 29 1 24 40 -3 24 3 75 17 131 18 75 20 93
8 100 -25 16 -112 10 -156 -12z m93 -56 c-4 -16 -13 -53 -19 -83 -9 -44 -17
-58 -39 -68 -42 -20 -67 -2 -67 51 0 72 45 125 109 126 21 1 22 -2 16 -26z"/>
<path d="M2150 901 c-22 -6 -28 -18 -52 -116 -15 -61 -30 -120 -33 -133 -5
-21 -3 -23 27 -20 l33 3 26 110 25 110 44 1 c41 1 56 12 59 47 1 9 -94 8 -129
-2z"/>
</g>
</svg>
